# xmcd
#
# Track frame offsets:
#	150
#	16929
#	36612
#	50345
#	67391
#	85632
#	102421
#	117025
#	134619
#	151696
#	169474
#
# Disc length: 2506 seconds
#
# Revision: 1
# Processed by: cddbd v1.5.2PL0 Copyright (c) Steve Scherf et al.
# Submitted via: audiograbber 1.83.01
#
DISCID=9509c80b
DTITLE=Martina McBride - Shine
DYEAR=2009
DGENRE=Country
TTITLE0=Wrong Baby Wrong Baby Wrong
TTITLE1=I Just Call You Mine
TTITLE2=Sunny Side Up
TTITLE3=Walk Away
TTITLE4=I'm Trying
TTITLE5=What Do I Have To Do
TTITLE6=Don't Cost A Dime
TTITLE7=Ride
TTITLE8=You're Not Leaving Me
TTITLE9=Wild Rebel Rose
TTITLE10=Lies
EXTD=
EXTT0=
EXTT1=
EXTT2=
EXTT3=
EXTT4=
EXTT5=
EXTT6=
EXTT7=
EXTT8=
EXTT9=
EXTT10=
PLAYORDER=
